<?xml version="1.0" encoding="UTF-8"?><svg id="Capa_2" xmlns="http://www.w3.org/2000/svg" viewBox="0 0 271 120.46"><defs><style>.cls-1{fill:#fdfcf8;stroke-width:0px;}</style></defs><g id="Capa_1-2"><rect class="cls-1" x=".29" y="116.46" width="268.71" height="4"/><path class="cls-1" d="M35.4,68.49c11.36,6.85,22.27,10.24,33.11,10.24,3.45,0,6.89-.34,10.33-1.03,15.21-3.02,30.75-10.25,46.18-21.5l47.97-35.05c13-9.4,25.54-14.99,37.25-16.6,12.43-1.7,23.86.52,33.98,6.62,11.01,6.64,19.52,18,21.28,28.37l.03.26c.16,1.21.39,2.48.61,3.7.42,2.32.86,4.73.86,7.07h4c0-2.7-.47-5.29-.93-7.79-.11-.6-.21-1.18-.31-1.74h.02s-.28-1.81-.28-1.81c-1.84-11.73-10.95-24.09-23.21-31.49-10.92-6.58-23.23-8.99-36.59-7.16-12.37,1.7-25.5,7.53-39.05,17.33l-47.97,35.05c-14.96,10.9-29.97,17.9-44.6,20.8-13.25,2.63-26.53-.22-40.6-8.71-12.16-7.33-20.82-16.76-26.5-28.82C7.16,28.17,4.62,16.8,3.99,5.04l-3.99.21c.65,12.25,3.33,24.17,7.35,32.7,6.02,12.79,15.2,22.78,28.05,30.54Z"/></g></svg>