<?xml version="1.0" encoding="UTF-8"?><svg id="Capa_2" xmlns="http://www.w3.org/2000/svg" viewBox="0 0 340.71 100.55"><defs><style>.cls-1{fill:#fdfcf8;stroke-width:0px;}</style></defs><g id="Capa_1-2"><path class="cls-1" d="M25.4,22.86c-.71-1.14-1.64-2.04-2.79-2.7-1.15-.66-2.43-1.2-3.83-1.61-1.41-.41-2.82-.78-4.24-1.11-1.42-.33-2.71-.67-3.86-1.02-1.15-.35-2.08-.83-2.79-1.44-.71-.62-1.06-1.43-1.06-2.44,0-.85.24-1.61.73-2.27.49-.66,1.26-1.2,2.32-1.61,1.06-.41,2.44-.62,4.14-.62,1.45,0,2.97.21,4.54.64,1.58.43,3.11,1.08,4.59,1.96l1.94-4.78c-1.45-.95-3.16-1.67-5.11-2.18-1.96-.5-3.93-.76-5.92-.76-3.03,0-5.53.45-7.5,1.35-1.97.9-3.44,2.1-4.4,3.6-.96,1.5-1.44,3.15-1.44,4.95s.36,3.22,1.09,4.35c.73,1.14,1.66,2.04,2.82,2.72,1.15.68,2.43,1.23,3.83,1.66,1.4.43,2.81.8,4.21,1.11,1.4.32,2.68.66,3.83,1.02,1.15.36,2.09.85,2.82,1.47.73.62,1.09,1.43,1.09,2.44,0,.82-.25,1.55-.76,2.2-.5.65-1.29,1.16-2.37,1.54-1.07.38-2.48.57-4.21.57-2.05,0-4.06-.35-6.01-1.04-1.96-.69-3.6-1.56-4.92-2.6l-2.13,4.78c1.39,1.17,3.27,2.12,5.63,2.86,2.37.74,4.84,1.11,7.43,1.11,3.03,0,5.54-.45,7.53-1.35,1.99-.9,3.46-2.1,4.43-3.6.96-1.5,1.44-3.13,1.44-4.9s-.35-3.17-1.06-4.31Z"/><path class="cls-1" d="M41.04,29.96l-7.95-18.7h-6.15l11.05,25.36-.45,1.01c-.57,1.26-1.18,2.16-1.85,2.7-.66.54-1.53.8-2.6.8-.79,0-1.56-.16-2.32-.47-.76-.32-1.44-.74-2.04-1.28l-2.37,4.35c.82.73,1.85,1.29,3.08,1.7,1.23.41,2.46.62,3.69.62,1.42,0,2.72-.22,3.91-.66s2.26-1.21,3.22-2.32c.96-1.1,1.84-2.6,2.63-4.5l11.83-27.31h-5.68l-8,18.7Z"/><rect class="cls-1" x="57.94" y="1.42" width="5.92" height="35.12"/><polygon class="cls-1" points="81.02 30 73.18 11.27 67.03 11.27 77.87 36.54 83.97 36.54 94.81 11.27 89.13 11.27 81.02 30"/><path class="cls-1" d="M101.01,7.1c1.14,0,2.05-.35,2.75-1.06s1.04-1.59,1.04-2.63c0-.98-.36-1.79-1.07-2.44-.71-.65-1.62-.97-2.72-.97s-2.01.34-2.72,1.02c-.71.68-1.07,1.52-1.07,2.53s.36,1.81,1.07,2.51c.71.69,1.62,1.04,2.72,1.04Z"/><rect class="cls-1" x="98.03" y="11.27" width="5.92" height="25.28"/><path class="cls-1" d="M128.8,12.59c-1.92-1.07-4.12-1.61-6.58-1.61s-4.77.55-6.75,1.66c-1.97,1.1-3.52,2.63-4.64,4.57-1.12,1.94-1.68,4.17-1.68,6.7s.58,4.72,1.73,6.67c1.15,1.96,2.78,3.5,4.88,4.62,2.1,1.12,4.55,1.68,7.36,1.68,2.21,0,4.17-.35,5.89-1.07,1.72-.71,3.15-1.73,4.28-3.05l-3.17-3.65c-.88.95-1.89,1.64-3.03,2.08-1.14.44-2.41.66-3.83.66-1.64,0-3.09-.32-4.35-.95-1.26-.63-2.24-1.53-2.93-2.7-.44-.73-.72-1.54-.88-2.41h19.82c.03-.28.05-.58.07-.9.02-.31.02-.6.02-.85,0-2.65-.55-4.95-1.66-6.91-1.11-1.96-2.62-3.47-4.54-4.54ZM115.85,19.29c.62-1.12,1.47-2,2.56-2.63,1.09-.63,2.36-.95,3.81-.95s2.67.32,3.76.95c1.09.63,1.95,1.5,2.58,2.6.45.78.72,1.65.83,2.6h-14.36c.13-.95.4-1.81.82-2.58Z"/><polygon class="cls-1" points="153.36 3.41 153.36 36.54 176.84 36.54 176.84 31.34 159.52 31.34 159.52 3.41 153.36 3.41"/><path class="cls-1" d="M192.32,36.87c2.21,0,4.17-.35,5.89-1.07,1.72-.71,3.15-1.73,4.28-3.05l-3.17-3.65c-.88.95-1.89,1.64-3.03,2.08-1.14.44-2.41.66-3.83.66-1.64,0-3.09-.32-4.35-.95-1.26-.63-2.24-1.53-2.93-2.7-.44-.73-.72-1.54-.88-2.41h19.82c.03-.28.05-.58.07-.9.02-.31.02-.6.02-.85,0-2.65-.55-4.95-1.66-6.91-1.11-1.96-2.62-3.47-4.54-4.54-1.92-1.07-4.12-1.61-6.58-1.61s-4.77.55-6.75,1.66c-1.97,1.1-3.52,2.63-4.64,4.57-1.12,1.94-1.68,4.17-1.68,6.7s.58,4.72,1.73,6.67c1.15,1.96,2.78,3.5,4.88,4.62,2.1,1.12,4.55,1.68,7.36,1.68ZM185.05,19.29c.62-1.12,1.47-2,2.56-2.63,1.09-.63,2.36-.95,3.81-.95s2.67.32,3.76.95c1.09.63,1.95,1.5,2.58,2.6.45.78.72,1.65.83,2.6h-14.36c.13-.95.4-1.81.82-2.58Z"/><path class="cls-1" d="M243.75,25.49c2.1-.93,3.72-2.27,4.85-4.02,1.14-1.75,1.7-3.84,1.7-6.27s-.57-4.53-1.7-6.3c-1.14-1.77-2.75-3.12-4.85-4.07s-4.62-1.42-7.55-1.42h-13.63v33.13h6.15v-9.66h7.48c.44,0,.86-.03,1.28-.05l6.77,9.71h6.63l-7.62-10.87c.16-.06.34-.11.49-.18ZM242.05,10.32c1.37,1.14,2.06,2.76,2.06,4.88s-.69,3.71-2.06,4.88c-1.37,1.17-3.42,1.75-6.13,1.75h-7.2v-13.21h7.2c2.71,0,4.76.57,6.13,1.7Z"/><path class="cls-1" d="M274.47,12.64c-2.04-1.1-4.36-1.66-6.98-1.66s-4.89.55-6.91,1.66c-2.02,1.1-3.61,2.63-4.78,4.57-1.17,1.94-1.75,4.17-1.75,6.7s.58,4.72,1.75,6.67c1.17,1.96,2.76,3.5,4.78,4.62,2.02,1.12,4.32,1.68,6.91,1.68s4.95-.56,6.98-1.68c2.04-1.12,3.63-2.66,4.78-4.62,1.15-1.96,1.73-4.18,1.73-6.67s-.58-4.8-1.73-6.72c-1.15-1.92-2.75-3.44-4.78-4.54ZM274.04,28.12c-.65,1.2-1.54,2.11-2.67,2.75-1.14.63-2.43.95-3.88.95s-2.69-.32-3.81-.95c-1.12-.63-2.01-1.55-2.67-2.75-.66-1.2-.99-2.6-.99-4.21s.33-3.05.99-4.24c.66-1.18,1.55-2.09,2.67-2.72,1.12-.63,2.41-.95,3.86-.95s2.7.32,3.83.95c1.14.63,2.03,1.54,2.67,2.72.65,1.18.97,2.6.97,4.24s-.32,3.01-.97,4.21Z"/><path class="cls-1" d="M304.74,24.05c0,1.67-.29,3.08-.88,4.21-.58,1.14-1.39,1.99-2.41,2.56-1.03.57-2.23.85-3.62.85-1.89,0-3.35-.56-4.38-1.68-1.03-1.12-1.54-2.82-1.54-5.09v-13.63h-5.92v14.44c0,2.52.46,4.62,1.37,6.27s2.19,2.89,3.83,3.69,3.53,1.21,5.68,1.21c1.96,0,3.75-.43,5.4-1.3,1.1-.58,2-1.35,2.75-2.27v3.24h5.63V11.27h-5.92v12.78Z"/><polygon class="cls-1" points="340.71 36.54 330.83 23.61 340.29 11.27 333.9 11.27 327.68 19.53 321.5 11.27 314.92 11.27 324.36 23.7 314.49 36.54 321.02 36.54 327.58 27.81 334.04 36.54 340.71 36.54"/><polygon class="cls-1" points="114.7 84.08 101.54 61.62 98.9 61.62 98.9 91.94 101.97 91.94 101.97 67.83 113.88 88.08 115.4 88.08 127.3 67.69 127.3 91.94 130.38 91.94 130.38 61.62 127.74 61.62 114.7 84.08"/><path class="cls-1" d="M147.57,68.98c-1.79,0-3.49.27-5.11.8-1.62.53-3,1.29-4.16,2.27l1.39,2.3c.92-.81,2.05-1.46,3.38-1.95,1.33-.49,2.73-.74,4.2-.74,2.14,0,3.75.52,4.83,1.56,1.08,1.04,1.62,2.53,1.62,4.46v1.39h-7.23c-2.17,0-3.89.3-5.18.89-1.29.59-2.21,1.37-2.77,2.34-.56.97-.84,2.04-.84,3.23,0,1.3.33,2.45,1,3.44.66,1,1.62,1.78,2.88,2.34s2.74.84,4.44.84c2.17,0,3.96-.45,5.39-1.34,1.04-.65,1.86-1.47,2.45-2.45v3.58h2.95v-14.12c0-2.97-.8-5.19-2.4-6.65-1.6-1.46-3.88-2.19-6.82-2.19ZM150.97,88.54c-1.26.79-2.75,1.19-4.48,1.19-1.82,0-3.23-.39-4.24-1.17-1.01-.78-1.52-1.82-1.52-3.12,0-1.15.42-2.12,1.28-2.9.85-.78,2.37-1.17,4.57-1.17h7.15v3.72c-.58,1.5-1.49,2.65-2.75,3.44Z"/><path class="cls-1" d="M177.73,80.87c-.88-.42-1.85-.75-2.9-1-1.05-.25-2.11-.45-3.16-.63-1.05-.17-2.02-.4-2.9-.67-.88-.27-1.59-.66-2.12-1.15-.53-.49-.8-1.17-.8-2.04,0-1.1.48-2,1.45-2.71.97-.71,2.47-1.06,4.53-1.06,1.15,0,2.31.15,3.46.45,1.15.3,2.24.8,3.25,1.49l1.34-2.47c-.95-.63-2.17-1.15-3.64-1.54s-2.94-.58-4.42-.58c-1.93,0-3.57.28-4.92.84-1.34.56-2.36,1.34-3.05,2.32-.69.98-1.04,2.09-1.04,3.33s.27,2.34.8,3.12c.53.78,1.23,1.39,2.1,1.84.87.45,1.83.79,2.88,1.02,1.05.23,2.11.43,3.18.61,1.07.17,2.04.38,2.9.63.87.25,1.57.61,2.1,1.08.53.48.8,1.13.8,1.97,0,1.13-.48,2.03-1.43,2.71-.95.68-2.51,1.02-4.68,1.02-1.59,0-3.1-.25-4.55-.76-1.44-.5-2.63-1.1-3.55-1.8l-1.39,2.42c.95.81,2.27,1.48,3.94,2.01,1.67.53,3.45.8,5.33.8,1.99,0,3.69-.27,5.09-.8s2.47-1.28,3.21-2.25,1.1-2.11,1.1-3.44c0-1.24-.27-2.24-.8-3.01-.53-.76-1.24-1.36-2.12-1.78Z"/><path class="cls-1" d="M194.26,68.98c-1.79,0-3.49.27-5.11.8-1.62.53-3,1.29-4.16,2.27l1.39,2.3c.92-.81,2.05-1.46,3.38-1.95,1.33-.49,2.73-.74,4.2-.74,2.14,0,3.75.52,4.83,1.56,1.08,1.04,1.62,2.53,1.62,4.46v1.39h-7.23c-2.17,0-3.89.3-5.17.89-1.29.59-2.21,1.37-2.77,2.34-.56.97-.84,2.04-.84,3.23,0,1.3.33,2.45,1,3.44.66,1,1.62,1.78,2.88,2.34s2.74.84,4.44.84c2.17,0,3.96-.45,5.39-1.34,1.05-.65,1.86-1.48,2.45-2.45v3.58h2.95v-14.12c0-2.97-.8-5.19-2.4-6.65-1.6-1.46-3.88-2.19-6.82-2.19ZM197.66,88.54c-1.26.79-2.75,1.19-4.48,1.19-1.82,0-3.23-.39-4.24-1.17s-1.52-1.82-1.52-3.12c0-1.15.43-2.12,1.28-2.9.85-.78,2.38-1.17,4.57-1.17h7.15v3.72c-.58,1.5-1.49,2.65-2.75,3.44Z"/><path class="cls-1" d="M213.61,59.8c-.63,0-1.17.21-1.6.63-.43.42-.65.93-.65,1.54s.22,1.13.65,1.56c.43.43.97.65,1.6.65s1.21-.22,1.62-.65c.42-.43.63-.97.63-1.6s-.22-1.11-.65-1.52c-.43-.4-.97-.61-1.6-.61Z"/><path class="cls-1" d="M212.05,93.62c0,1.41-.33,2.48-.97,3.2s-1.58,1.08-2.79,1.08c-1.44,0-2.63-.39-3.55-1.17l-1.08,2.34c.58.49,1.29.86,2.14,1.1.85.25,1.74.37,2.66.37,2.17,0,3.82-.63,4.96-1.88,1.14-1.26,1.71-2.94,1.71-5.05v-24.43h-3.07v24.43Z"/><path class="cls-1" d="M238.23,70.43c-1.66-.97-3.56-1.45-5.7-1.45s-4.01.5-5.69,1.49c-1.69,1-3.02,2.36-3.98,4.09-.97,1.73-1.45,3.72-1.45,5.98s.5,4.25,1.52,6c1.01,1.75,2.41,3.12,4.2,4.11,1.79,1,3.87,1.49,6.24,1.49,1.82,0,3.49-.32,5-.95,1.52-.63,2.78-1.56,3.79-2.77l-1.73-1.99c-.87,1.01-1.9,1.76-3.1,2.25-1.2.49-2.49.74-3.88.74-1.76,0-3.33-.37-4.7-1.1-1.37-.74-2.44-1.76-3.21-3.07-.64-1.1-1-2.35-1.1-3.75h19.09c0-.17,0-.34.02-.5.01-.16.02-.31.02-.45,0-2.28-.48-4.29-1.43-6.04-.95-1.75-2.26-3.1-3.92-4.07ZM225.44,75.74c.69-1.3,1.66-2.31,2.9-3.03,1.24-.72,2.64-1.08,4.2-1.08s2.99.36,4.2,1.08c1.21.72,2.17,1.73,2.88,3.01.57,1.04.9,2.21,1.01,3.49h-16.18c.11-1.27.44-2.43.99-3.46Z"/></g></svg>